name 900006_16rea_lsw
datacolumns 54
datarows 4
range 0.6291666650000000 0.6609166649000001
cursor 1.0 1.0 0.0
keys m_key
wrap
enforce_loops no
enforce_constraints no
calc_derivatives 0.010583
event_color 1.000000 0.000000 1.000000
endheader

time	calcn_r_tx	calcn_r_ty	calcn_r_tz	calcn_r_r1	calcn_r_r2	calcn_r_r3	calcn_l_tx	calcn_l_ty	calcn_l_tz	calcn_l_r1	calcn_l_r2	calcn_l_r3	pelvis_tz	pelvis_tx	pelvis_ty	pelvis_tilt	pelvis_list	pelvis_rotation	hip_flexion_r	hip_adduction_r	hip_rotation_r	knee_angle_r	ankle_angle_r	subtalar_angle_r	mtp_angle_r	hip_flexion_l	hip_adduction_l	hip_rotation_l	knee_angle_l	ankle_angle_l	subtalar_angle_l	mtp_angle_l	lumbar_extension	lumbar_bending	lumbar_rotation	ground_force_px	ground_force_py	ground_force_pz	ground_force_vx	ground_force_vy	ground_force_vz	ground_force_px	ground_force_py	ground_force_pz	ground_force_vx	ground_force_vy	ground_force_vz	ground_torque_x	ground_torque_y	ground_torque_z	ground_torque_x	ground_torque_y	ground_torque_z	
      0.6291666650000000	      1.9270185277803433	      0.0344746204207028	     -0.1935190587937389	      2.7797621468123528	     -2.1743901789217075	     16.3630411997727170	      1.4524376722631784	      0.0603875147759132	     -0.2576608954143140	     -2.4664739523311936	      8.6398220926295171	    -12.4434786504721960	     -0.2598936081219737	      1.8009521898564629	      0.8090382439918031	      1.6702378444864163	     -0.8474710795331751	      3.1478265984723559	     21.6237089367702570	      1.5934301754104609	     -6.0085720935215532	     -8.8091561951715818	      2.0514530576667873	      0.0000000000000000	      0.0000000000000000	    -14.0979321394214950	      3.8261355518048403	     -7.5914269347568952	    -13.3370141025353010	     13.6907850687179200	      0.0000000000000000	      0.0000000000000000	     -2.4841841072507349	      1.8638520312553379	     -0.6946773879813697	      1.9476732592001518	      0.0000000000000000	     -0.2061371595843146	      0.4409485000388170	     10.0377393688439490	      1.2643323276285987	      1.6129962726292131	      0.0000000000000000	     -0.2774592874770598	     43.1421335860267450	    437.9306114065265100	      5.3082656601308944	      0.0000000000000000	     -0.0021123983247999	      0.0000000000000000	      0.0000000000000000	     -0.0761496958453682	      0.0000000000000000	
      0.6397499983000000	      1.9300903308173343	      0.0330453446413016	     -0.1951642706032414	      2.7505798797352776	     -1.6658923613328203	     15.3780612562636950	      1.4533213237377434	      0.0644645299988987	     -0.2577748354233408	     -2.3461474811452372	      8.8304829088627521	    -13.7242571510910500	     -0.2603674659575004	      1.8098913392464691	      0.8086566178481033	      1.6698994861552805	     -0.7779492836306369	      3.3811361045711563	     21.5159682825941520	      1.6112182489812314	     -5.7481488567989976	     -9.5045548072512656	      1.8842759107343929	      0.0000000000000000	      0.0000000000000000	    -14.2375877215466960	      3.7168666511801813	     -7.5633000560971091	    -14.4213919511826920	     13.6231064681181310	      0.0000000000000000	      0.0000000000000000	     -2.7870649414214190	      2.0457388936597187	     -1.2111666072195648	      1.9508387159466640	      0.0000000000000000	     -0.2062311647086727	      1.6483709533299065	     58.6639227135597780	      5.5357767062575043	      1.6140530653573508	      0.0000000000000000	     -0.2774193974490201	     46.6469932783487170	    431.8248654942900700	      4.4020058407372806	      0.0000000000000000	      0.0580322980462494	      0.0000000000000000	      0.0000000000000000	     -0.0321871288915129	      0.0000000000000000	
      0.6503333316000001	      1.9325519751110121	      0.0319396643353868	     -0.1965615843821950	      2.7398692703805936	     -1.1438981307834843	     14.0267074380629990	      1.4545689360193788	      0.0689238298703236	     -0.2580161572253431	     -2.2558959669226932	      8.9638314592861228	    -15.1464327325102260	     -0.2608196694702832	      1.8189901878108308	      0.8084368332204177	      1.6911894667123182	     -0.7228574447564540	      3.5745639153296223	     21.3835110424673940	      1.6400210250217915	     -5.4971146027046887	    -10.2729907074747530	      1.4174022541066407	      0.0000000000000000	      0.0000000000000000	    -14.3615887560950860	      3.6005170020692208	     -7.4937163766007053	    -15.5577646492257640	     13.4238925014453120	      0.0000000000000000	      0.0000000000000000	     -3.0919793541539429	      2.2633907579539683	     -1.6525815058696449	      1.9535542116584905	      0.0000000000000000	     -0.2068107275089386	     -0.4743445475608580	    122.9696194176884500	     10.5973099163797230	      1.6151656324598138	      0.0000000000000000	     -0.2773364353664276	     49.9875343703878200	    422.9081513521035200	      3.3738148651382267	      0.0000000000000000	      0.1564937140934344	      0.0000000000000000	      0.0000000000000000	      0.0264337945103291	      0.0000000000000000	
      0.6609166649000001	      1.9346767400584617	      0.0313339703682066	     -0.1976057093656730	      2.7370450269453950	     -0.5905742108335845	     12.3918189218223220	      1.4562610735268118	      0.0738944171829805	     -0.2583857394671723	     -2.2009470493840548	      9.0302823002706791	    -16.7312813919310520	     -0.2611912835706835	      1.8282892785556717	      0.8085062711252896	      1.7359441891081477	     -0.6939206341396956	      3.7088085936077690	     21.2267836645605070	      1.6989286794053344	     -5.2097797890819377	    -11.0868318754467140	      0.7062339294913153	      0.0000000000000000	      0.0000000000000000	    -14.4683477220184450	      3.4725722572839497	     -7.3883992969476733	    -16.7460635004134100	     13.0690435218230090	      0.0000000000000000	      0.0000000000000000	     -3.3798525744402195	      2.5171847747036700	     -2.0045241004677505	      1.9562932847908869	      0.0000000000000000	     -0.2073705351559353	    -11.2223843912861620	    165.6176092102701900	     14.5157157980909930	      1.6163504631378096	      0.0000000000000000	     -0.2771558329377357	     52.7703118798370670	    410.4352785354621500	      2.1854607419052789	      0.0000000000000000	      0.1977508552363508	      0.0000000000000000	      0.0000000000000000	      0.1083294421673262	      0.0000000000000000	
